# xmcd
#
# Track frame offsets:
#   183
#   15443
#   33030
#   46395
#   61365
#   78890
#   91793
#   109600
#   125970
#   141043
#
# Disc length: 2063 seconds
#
# Revision: 0
# Processed by: cddbd v1.5.1PL2 Copyright (c) Steve Scherf et al.
# Submitted via: GXTranscoder 2.0.1939
#
DISCID=74080d0a
DTITLE=Zalos Reyes - Dolor del amor
DYEAR=1900
DGENRE=Blues
TTITLE0=Tal vez
TTITLE1=En mi camarin
TTITLE2=Mala
TTITLE3=Pienso en ti
TTITLE4=Te has acostumbrado muy mal
TTITLE5=Dolor de amor
TTITLE6=El corazon en la garganta
TTITLE7=No te dejes encantar
TTITLE8=Te amo
TTITLE9=Amor , es nuestro aniversario
EXTD=
EXTT0=
EXTT1=
EXTT2=
EXTT3=
EXTT4=
EXTT5=
EXTT6=
EXTT7=
EXTT8=
EXTT9=
PLAYORDER=
